<?xml version="1.0" encoding="utf-8"?>
<!-- Generator: Adobe Illustrator 22.1.0, SVG Export Plug-In . SVG Version: 6.00 Build 0)  -->
<svg version="1.1" id="Layer_1" xmlns="http://www.w3.org/2000/svg" xmlns:xlink="http://www.w3.org/1999/xlink" x="0px" y="0px"
	 viewBox="0 0 841.9 595.3" style="enable-background:new 0 0 841.9 595.3;" xml:space="preserve">
<style type="text/css">
	.st0{fill:#9D9FA2;}
</style>
<g>
	<path class="st0" d="M226.3,272.4v39.8L205,299.7v-39.8l-18.2-10.5v103.4l18,10.3l0.1,0.1v-42.6l21.3,12.4v42.7l18.1,10.4l0.1,0.1
		V282.8l-18-10.4L226.3,272.4z M203.7,318.2l-0.2-0.1v42.7l-15.3-8.7V251.9l15.3,8.8v39.8l24,14l0.2,0.1v-39.8l15.3,8.8v100
		l-15.3-8.9v-42.7L203.7,318.2z"/>
	<path class="st0" d="M290.6,259.9v39.5l-21.3,12.4v-39.5l-18.2,9.6v103.4l18.1-9.8l0.1,0v-42.7l21.3-12.4v42.7l18.1-10.3l0.1,0
		V249.4L290.6,259.9L290.6,259.9z M292,300.3L292,300.3l0.1-39.6l15.3-8.8V352l-15.3,8.7v-42.7l-24.1,14l-0.1,0v42.7l-15.3,8.3
		V282.9l15.3-8.1v39.6L292,300.3z"/>
	<path class="st0" d="M244.9,254l22.1-12.5l21.5,12.5l0.1,0l18.8-10.7l-60.1-34.1l0,0l-18.1,10l-0.2,0.1l21,12.5l-22.4,12.2
		l-21.4-12l-0.1,0l-18.5,10.8l-0.2,0.1l59.6,34.4l0.1,0l20.4-11L244.9,254z M247.3,210.9l57.3,32.5l-15.9,9l-21.5-12.5l0,0
		L242,254.1l22.6,12.3l-17.4,9.4L190.3,243l15.9-9.2l21.4,12l0,0l25.3-13.8l-21-12.5L247.3,210.9z"/>
	<polygon class="st0" points="364.3,295.5 338.3,295.5 338.3,266.6 328.4,266.6 328.4,334 338.3,334 338.3,304.5 364.3,304.5 
		364.3,334 374.2,334 374.2,266.6 364.3,266.6 	"/>
	<path class="st0" d="M425.2,310.1c-0.1,4.6-1.3,8.1-3.8,10.5c-2.5,2.5-5.7,3.8-9.6,3.8c-3.9,0-7-1.3-9.5-3.8
		c-2.5-2.4-3.8-5.9-3.9-10.5v-43.5h-9.9v44.6c0.1,7.1,2.3,12.7,6.8,16.9c4.4,4.3,9.9,6.4,16.4,6.5c6.7-0.1,12.2-2.2,16.5-6.5
		c4.3-4.2,6.6-9.8,6.7-16.9v-44.6h-9.9V310.1z"/>
	<path class="st0" d="M484.6,299.3v-0.2c1.9-0.9,3.5-2,4.7-3.1c1.3-1.1,2.3-2.2,3-3.4c1.3-2.5,2-5.2,1.9-8c0-5.4-1.6-9.8-4.9-13.1
		c-3.2-3.3-8-4.9-14.5-5h-25.3V334h27.5c5.1,0,9.4-1.8,12.9-5.3c3.5-3.4,5.2-8,5.3-13.8c0-3.5-0.9-6.8-2.6-9.8
		C490.9,302.2,488.2,300.3,484.6,299.3z M459.4,275.6h14.3c3.6,0.1,6.3,1,8,2.7c1.7,1.9,2.6,4.2,2.6,6.9c0,2.7-0.9,5-2.6,6.8
		c-1.7,2-4.4,2.9-8,2.9h-14.3V275.6z M482.8,321.3c-1.7,2-4.4,3.1-8.1,3.1h-15.3v-20.3h15.3c3.7,0.1,6.4,1.1,8.1,3
		c1.7,2,2.6,4.4,2.6,7.1C485.4,317,484.5,319.3,482.8,321.3z"/>
	<polygon class="st0" points="507.3,334 549.1,334 549.1,324.4 517.2,324.4 517.2,304.5 544.4,304.5 544.4,295.5 517.2,295.5 
		517.2,276.2 549.1,276.2 549.1,266.5 507.3,266.5 	"/>
	<path class="st0" d="M605.4,285.4c-0.2-6.2-2.3-11-6.5-14.4c-3.4-3-7.9-4.4-13.3-4.4h-25.5V334h9.9v-28.8h12.7l13.5,28.8h11.8
		l-15.1-29.9C601.1,300.8,605.3,294.5,605.4,285.4z M569.9,296.1v-20.5h15.5c3.2,0,5.6,0.7,7.3,2.1c2.1,1.6,3.2,4.1,3.3,7.7
		c0,2.9-0.9,5.4-2.7,7.4c-1.9,2.2-4.6,3.3-8.4,3.3H569.9z"/>
	<polygon class="st0" points="609.3,266.6 609.3,275.6 627.2,275.6 627.2,334 637.1,334 637.1,275.6 655.1,275.6 655.1,266.6 	"/>
</g>
</svg>
