<svg width="540" height="200" xmlns="http://www.w3.org/2000/svg">
 <style type="text/css">.st0{fill:#9D9FA2;}</style>

 <g>
  <title>background</title>
  <rect fill="none" id="canvas_background" height="202" width="542" y="-1" x="-1"/>
 </g>
 <g>
  <title>Layer 1</title>
  <g id="svg_1">
   <path id="svg_2" d="m82.3,74.4l0,39.8l-21.3,-12.5l0,-39.8l-18.2,-10.5l0,103.4l18,10.3l0.1,0.1l0,-42.6l21.3,12.4l0,42.7l18.1,10.4l0.1,0.1l0,-103.4l-18,-10.4l-0.1,0zm-22.6,45.8l-0.2,-0.1l0,42.7l-15.3,-8.7l0,-100.2l15.3,8.8l0,39.8l24,14l0.2,0.1l0,-39.8l15.3,8.8l0,100l-15.3,-8.9l0,-42.7l-24,-13.8z" class="st0"/>
   <path id="svg_3" d="m146.6,61.9l0,39.5l-21.3,12.4l0,-39.5l-18.2,9.6l0,103.4l18.1,-9.8l0.1,0l0,-42.7l21.3,-12.4l0,42.7l18.1,-10.3l0.1,0l0,-103.4l-18.2,10.5l0,0zm1.4,40.4l0,0l0.1,-39.6l15.3,-8.8l0,100.1l-15.3,8.7l0,-42.7l-24.1,14l-0.1,0l0,42.7l-15.3,8.3l0,-100.1l15.3,-8.1l0,39.6l24.1,-14.1z" class="st0"/>
   <path id="svg_4" d="m100.9,56l22.1,-12.5l21.5,12.5l0.1,0l18.8,-10.7l-60.1,-34.1l0,0l-18.1,10l-0.2,0.1l21,12.5l-22.4,12.2l-21.4,-12l-0.1,0l-18.5,10.8l-0.2,0.1l59.6,34.4l0.1,0l20.4,-11l-22.6,-12.3zm2.4,-43.1l57.3,32.5l-15.9,9l-21.5,-12.5l0,0l-25.2,14.2l22.6,12.3l-17.4,9.4l-56.9,-32.8l15.9,-9.2l21.4,12l0,0l25.3,-13.8l-21,-12.5l15.4,-8.6z" class="st0"/>
   <polygon id="svg_5" points="220.29998779296875,97.5 194.29998779296875,97.5 194.29998779296875,68.60000610351562 184.39999389648438,68.60000610351562 184.39999389648438,136 194.29998779296875,136 194.29998779296875,106.5 220.29998779296875,106.5 220.29998779296875,136 230.20001220703125,136 230.20001220703125,68.60000610351562 220.29998779296875,68.60000610351562 " class="st0"/>
   <path id="svg_6" d="m281.2,112.1c-0.1,4.6 -1.3,8.1 -3.8,10.5c-2.5,2.5 -5.7,3.8 -9.6,3.8c-3.9,0 -7,-1.3 -9.5,-3.8c-2.5,-2.4 -3.8,-5.9 -3.9,-10.5l0,-43.5l-9.9,0l0,44.6c0.1,7.1 2.3,12.7 6.8,16.9c4.4,4.3 9.9,6.4 16.4,6.5c6.7,-0.1 12.2,-2.2 16.5,-6.5c4.3,-4.2 6.6,-9.8 6.7,-16.9l0,-44.6l-9.9,0l0,43.5l0.2,0z" class="st0"/>
   <path id="svg_7" d="m340.6,101.3l0,-0.2c1.9,-0.9 3.5,-2 4.7,-3.1c1.3,-1.1 2.3,-2.2 3,-3.4c1.3,-2.5 2,-5.2 1.9,-8c0,-5.4 -1.6,-9.8 -4.9,-13.1c-3.2,-3.3 -8,-4.9 -14.5,-5l-25.3,0l0,67.5l27.5,0c5.1,0 9.4,-1.8 12.9,-5.3c3.5,-3.4 5.2,-8 5.3,-13.8c0,-3.5 -0.9,-6.8 -2.6,-9.8c-1.7,-2.9 -4.4,-4.8 -8,-5.8zm-25.2,-23.7l14.3,0c3.6,0.1 6.3,1 8,2.7c1.7,1.9 2.6,4.2 2.6,6.9c0,2.7 -0.9,5 -2.6,6.8c-1.7,2 -4.4,2.9 -8,2.9l-14.3,0l0,-19.3zm23.4,45.7c-1.7,2 -4.4,3.1 -8.1,3.1l-15.3,0l0,-20.3l15.3,0c3.7,0.1 6.4,1.1 8.1,3c1.7,2 2.6,4.4 2.6,7.1c0,2.8 -0.9,5.1 -2.6,7.1z" class="st0"/>
   <polygon id="svg_8" points="363.29998779296875,136 405.0999755859375,136 405.0999755859375,126.39999389648438 373.20001220703125,126.39999389648438 373.20001220703125,106.5 400.4000244140625,106.5 400.4000244140625,97.5 373.20001220703125,97.5 373.20001220703125,78.20001220703125 405.0999755859375,78.20001220703125 405.0999755859375,68.5 363.29998779296875,68.5 " class="st0"/>
   <path id="svg_9" d="m461.4,87.4c-0.2,-6.2 -2.3,-11 -6.5,-14.4c-3.4,-3 -7.9,-4.4 -13.3,-4.4l-25.5,0l0,67.4l9.9,0l0,-28.8l12.7,0l13.5,28.8l11.8,0l-15.1,-29.9c8.2,-3.3 12.4,-9.6 12.5,-18.7zm-35.5,10.7l0,-20.5l15.5,0c3.2,0 5.6,0.7 7.3,2.1c2.1,1.6 3.2,4.1 3.3,7.7c0,2.9 -0.9,5.4 -2.7,7.4c-1.9,2.2 -4.6,3.3 -8.4,3.3l-15,0z" class="st0"/>
   <polygon id="svg_10" points="465.29998779296875,68.60000610351562 465.29998779296875,77.60000610351562 483.20001220703125,77.60000610351562 483.20001220703125,136 493.0999755859375,136 493.0999755859375,77.60000610351562 511.0999755859375,77.60000610351562 511.0999755859375,68.60000610351562 " class="st0"/>
  </g>
 </g>
</svg>